Coordinates
version=1
nRows=8
nColumns=63
inDegrees=yes

Units are S.I. units (second, meters, Newtons, ...)
If the header above contains a line with 'inDegrees', this indicates whether rotational values are in degrees (yes) or radians (no).

endheader
time	pelvis_tilt	pelvis_list	pelvis_rotation	pelvis_tx	pelvis_ty	pelvis_tz	hip_flexion_r	hip_adduction_r	hip_rotation_r	knee_angle_r	knee_angle_r_beta	ankle_angle_r	subtalar_angle_r	mtp_angle_r	hip_flexion_l	hip_adduction_l	hip_rotation_l	knee_angle_l	knee_angle_l_beta	ankle_angle_l	subtalar_angle_l	mtp_angle_l	L5_S1_Flex_Ext	L5_S1_Lat_Bending	L5_S1_axial_rotation	L4_L5_Flex_Ext	L4_L5_Lat_Bending	L4_L5_axial_rotation	L3_L4_Flex_Ext	L3_L4_Lat_Bending	L3_L4_axial_rotation	L2_L3_Flex_Ext	L2_L3_Lat_Bending	L2_L3_axial_rotation	L1_L2_Flex_Ext	L1_L2_Lat_Bending	L1_L2_axial_rotation	L1_T12_Flex_Ext	L1_T12_Lat_Bending	L1_T12_axial_rotation	Abs_r3	Abs_r2	Abs_r1	Abs_t1	Abs_t2	neck_flexion	neck_bending	neck_rotation	arm_flex_r	arm_add_r	arm_rot_r	elbow_flex_r	pro_sup_r	wrist_flex_r	wrist_dev_r	arm_flex_l	arm_add_l	arm_rot_l	elbow_flex_l	pro_sup_l	wrist_flex_l	wrist_dev_l
      3.32758621	    -22.30482222	      3.78937281	     74.57359020	      0.14137986	      1.04517220	      0.32944517	     19.59920665	    -19.43170321	     10.14087456	     39.07781161	      0.68203648	     53.60063158	     10.32128030	      0.00000000	      6.64808239	     18.33822268	    -28.91626125	     18.12160154	      0.31628161	     39.43579249	     17.05225040	      0.00000000	     -1.70409884	     -3.62069036	     -2.20674043	     -3.16468196	     -4.81551818	     -2.34466170	     -2.79966399	     -8.80334654	     -2.34466170	     -1.94761457	     -8.80334654	     -1.93089787	     -1.58242619	     -7.38331178	     -1.79297660	     -0.97372208	     -5.60844937	     -1.65505532	    -12.17220764	    -40.95797347	    -12.27322823	      0.00000000	      0.00000000	    -12.74679442	     17.92064813	     21.65100831	    107.01374904	     27.36148925	    152.30237494	      0.07283690	      0.86998387	    -69.77948218	    -24.32803987	     -6.92680158	    -31.79050766	     71.19555273	     15.51459136	      3.31637679	     -7.19304600	     -2.08550297
      3.34482759	    -22.23732465	      3.44918752	     74.93812090	      0.14150044	      1.04447556	      0.32775743	     19.69876805	    -19.23243446	     10.14541107	     39.24367456	      0.68493133	     53.74642987	      9.95658903	      0.00000000	      6.70086230	     18.17362108	    -28.86245809	     18.17169557	      0.31715592	     39.41734308	     17.10558906	      0.00000000	     -1.66352507	     -3.61873293	     -2.10015777	     -3.08933241	     -4.81291480	     -2.23141763	     -2.73300534	     -8.79858724	     -2.23141763	     -1.90124280	     -8.79858724	     -1.83763805	     -1.54474938	     -7.37932019	     -1.70637819	     -0.95053823	     -5.60541731	     -1.57511833	    -11.88239324	    -40.93583064	    -11.68044748	      0.00000000	      0.00000000	    -13.35620125	     18.83824757	     20.29435080	    106.46399750	     26.55105545	    152.15209209	      0.07475680	      0.87614398	    -69.76797866	    -24.28186459	     -6.66762866	    -31.95208670	     71.48743519	     15.52475981	      3.27689995	     -7.23172879	     -1.87833969
      3.36206897	    -22.15874680	      3.03040481	     75.15271969	      0.14190626	      1.04375452	      0.32636643	     19.87128983	    -18.76252339	     10.79720542	     39.28345606	      0.68562565	     53.78418473	      8.79689809	      0.00000000	      6.94970114	     17.92175968	    -29.00877122	     18.25832367	      0.31866786	     39.58446468	     17.34254704	      0.00000000	     -1.59586509	     -3.61664967	     -1.97727969	     -2.96368105	     -4.81014406	     -2.10085968	     -2.62184675	     -8.79352201	     -2.10085968	     -1.82391421	     -8.79352201	     -1.73011973	     -1.48192032	     -7.37507201	     -1.60653975	     -0.91187731	     -5.60219034	     -1.48295977	    -11.39910472	    -40.91226443	    -10.99703648	      0.00000000	      0.00000000	    -13.70200935	     19.08437872	     18.21738770	    105.83933159	     25.78138107	    151.91289894	      0.07665375	      0.89703273	    -69.75872357	    -24.25469713	     -6.21578452	    -32.23135986	     74.00217705	     15.45449193	      2.82204561	     -7.16908389	     -1.27091765
      3.37931034	    -22.15120875	      2.75237008	     75.44563723	      0.14234988	      1.04338828	      0.32503085	     19.92136189	    -18.46166202	     11.32190336	     39.36105801	      0.68698006	     53.80002920	      7.73987378	      0.00000000	      7.09902100	     17.84271835	    -28.70621991	     18.22194991	      0.31803302	     39.86769617	     17.44383674	      0.00000000	     -1.54582475	     -3.62820774	     -1.88762517	     -2.87075115	     -4.82551629	     -2.00560175	     -2.53963548	     -8.82162430	     -2.00560175	     -1.76672311	     -8.82162430	     -1.65167203	     -1.43545286	     -7.39864122	     -1.53369545	     -0.88328426	     -5.62009379	     -1.41571888	    -11.04167162	    -41.04301160	    -10.49840492	      0.00000000	      0.00000000	    -14.02235014	     19.52549511	     16.58724357	    105.28826975	     25.11979771	    151.79080109	      0.07813502	      0.90081525	    -69.74986143	    -24.22955235	     -6.11232598	    -32.50775410	     74.14408905	     15.56176136	      2.82625236	     -7.32152496	     -0.53884422
      3.39655172	    -22.16886526	      2.54299625	     75.89983037	      0.14253014	      1.04339341	      0.32371644	     19.80325242	    -18.37204889	     11.41530761	     39.31818155	      0.68623172	     53.82700204	      7.02002417	      0.00000000	      7.16342219	     17.86744523	    -28.02696820	     18.09503378	      0.31581792	     40.13342783	     17.53610915	      0.00000000	     -1.52158778	     -3.63803888	     -1.82657362	     -2.82574066	     -4.83859171	     -1.94073447	     -2.49981656	     -8.84552774	     -1.94073447	     -1.73902267	     -8.84552774	     -1.59825192	     -1.41294641	     -7.41868889	     -1.48409106	     -0.86943526	     -5.63532223	     -1.36993021	    -10.86854935	    -41.15422346	    -10.15885449	      0.00000000	      0.00000000	    -14.04173539	     19.99353322	     15.31777292	    104.81393515	     24.52195641	    151.61271487	      0.07949639	      0.91073628	    -69.74029043	    -24.21471423	     -5.85150773	    -32.75954933	     74.83309569	     15.58196378	      2.69395533	     -7.42697143	     -0.10835044
      3.41379310	    -22.19113592	      2.36050522	     76.15888057	      0.14255368	      1.04339511	      0.32253270	     19.76734293	    -18.38466600	     11.32864201	     39.26987900	      0.68538869	     53.89874753	      6.80957389	      0.00000000	      7.24916506	     17.89836392	    -27.57657071	     17.94701722	      0.31323454	     40.42116798	     17.78607351	      0.00000000	     -1.50546216	     -3.63761189	     -1.74874288	     -2.79579378	     -4.83802382	     -1.85803931	     -2.47332378	     -8.84448956	     -1.85803931	     -1.72059270	     -8.84448956	     -1.53015002	     -1.39797216	     -7.41781817	     -1.42085359	     -0.86022108	     -5.63466082	     -1.31155716	    -10.75336567	    -41.14939326	     -9.72598327	      0.00000000	      0.00000000	    -13.79637847	     20.43243383	     14.89870054	    104.47764516	     24.06895043	    151.50362688	      0.08111291	      0.91856988	    -69.72743721	    -24.20299540	     -5.62138322	    -32.81211135	     74.82892734	     15.52578420	      2.73599136	     -7.47148614	     -0.09735756
      3.43103448	    -21.94617874	      2.06034417	     76.72622018	      0.14259728	      1.04389430	      0.32107426	     19.44988621	    -18.02174385	     11.31295602	     38.97216564	      0.68019261	     53.66840726	      5.83072153	      0.00000000	      7.28572516	     17.67626507	    -26.63517313	     17.80208795	      0.31070505	     40.54550989	     17.75485278	      0.00000000	     -1.49984664	     -3.61115334	     -1.71720493	     -2.78536520	     -4.80283394	     -1.82453024	     -2.46409805	     -8.78015823	     -1.82453024	     -1.71417473	     -8.78015823	     -1.50255432	     -1.39275759	     -7.36386389	     -1.39522901	     -0.85701237	     -5.59367652	     -1.28790370	    -10.71325458	    -40.85008882	     -9.55057867	      0.00000000	      0.00000000	    -13.37829313	     20.74024000	     13.79299021	    104.00161317	     23.53608155	    151.12682837	      0.08232110	      0.94142614	    -69.71421267	    -24.21052205	     -5.26199723	    -32.81352073	     75.62172893	     15.32086071	      3.13618732	     -7.64532498	     -0.17584311
      3.44827586	    -21.62787423	      1.75394785	     77.11821609	      0.14242445	      1.04423415	      0.31960175	     19.22329289	    -17.63659082	     11.17029773	     38.68604424	      0.67519885	     53.51724203	      5.20982583	      0.00000000	      7.35887335	     17.36760616	    -25.88323136	     17.73541113	      0.30954132	     40.70182446	     17.81580204	      0.00000000	     -1.49620146	     -3.56952257	     -1.67607203	     -2.77859573	     -4.74746502	     -1.78082653	     -2.45810938	     -8.67893717	     -1.78082653	     -1.71000865	     -8.67893717	     -1.46656303	     -1.38937268	     -7.27897042	     -1.36180852	     -0.85492951	     -5.52919046	     -1.25705402	    -10.68721740	    -40.37915320	     -9.32180981	      0.00000000	      0.00000000	    -12.96573207	     21.11886347	     13.26082079	    103.59872122	     23.00519819	    150.77163985	      0.08424639	      0.95726166	    -69.69750271	    -24.19435673	     -4.89467095	    -32.58142118	     76.60134481	     14.93545457	      3.50103906	     -7.65835206	     -0.72212987
